<?xml version="1.0" encoding="UTF-8"?>
<svg width="872px" height="730px" viewBox="0 0 872 730" version="1.1" xmlns="http://www.w3.org/2000/svg" xmlns:xlink="http://www.w3.org/1999/xlink">
    <!-- Generator: Sketch 51.3 (57544) - http://www.bohemiancoding.com/sketch -->
    <title>cfn-lint-label</title>
    <desc>Created with Sketch.</desc>
    <defs>
        <filter x="-0.5%" y="-0.6%" width="102.9%" height="101.4%" filterUnits="objectBoundingBox" id="filter-1">
            <feOffset dx="1" dy="2" in="SourceAlpha" result="shadowOffsetOuter1"></feOffset>
            <feColorMatrix values="0 0 0 0 0.0862745098   0 0 0 0 0.0980392157   0 0 0 0 0.121568627  0 0 0 1 0" type="matrix" in="shadowOffsetOuter1" result="shadowMatrixOuter1"></feColorMatrix>
            <feMerge>
                <feMergeNode in="shadowMatrixOuter1"></feMergeNode>
                <feMergeNode in="SourceGraphic"></feMergeNode>
            </feMerge>
        </filter>
        <path d="M78.0455135,217.419869 C77.7581145,208.007928 72.5069045,191.414531 62.2918834,167.639678 C74.9933083,189.837037 85.3469047,204.245517 93.3526727,210.865119 C97.2556266,206.664106 101.827697,200.120156 107.068885,191.233267 C106.245792,201.526183 105.868474,209.383175 105.93693,214.804244 C117.918515,212.892613 142.875451,201.559727 180.807738,180.805585 C146.605945,203.259739 125.226251,219.377719 116.668657,229.159525 C123.569587,232.540943 134.137118,237.173309 148.37125,243.056623 C131.588442,239.794376 119.43026,238.378177 111.896704,238.808027 C110.915152,248.805805 117.590208,265.568749 131.921874,289.09686 C117.317522,267.29749 106.062433,253.149005 98.1566065,246.651405 C94.6501867,251.177194 90.8153066,257.798096 86.6519661,266.514112 C86.5628573,256.261759 86.0198047,248.454739 85.0228083,243.093053 C73.4796764,245.671151 50.2259747,256.663947 15.2617034,276.071442 C45.8155833,253.40143 65.1252103,237.676022 73.1905843,228.895217 C66.9114309,225.126175 57.8552692,220.653204 46.0220989,215.476305 C60.0790168,217.137799 70.7534883,217.785653 78.0455135,217.419869 Z" id="path-2"></path>
        <filter x="-0.9%" y="-1.2%" width="103.6%" height="102.5%" filterUnits="objectBoundingBox" id="filter-3">
            <feOffset dx="3" dy="0" in="SourceAlpha" result="shadowOffsetOuter1"></feOffset>
            <feColorMatrix values="0 0 0 0 0.0862745098   0 0 0 0 0.0980392157   0 0 0 0 0.121568627  0 0 0 1 0" type="matrix" in="shadowOffsetOuter1"></feColorMatrix>
        </filter>
        <path d="M225.298988,35.0718815 C225.121103,29.3802159 221.426749,19.1314524 214.215928,4.32559086 C223.059785,17.3377805 230.070726,25.5631759 235.248751,29.0017771 C237.242385,26.4918605 239.477017,23.1380788 241.952648,18.9404318 C241.566412,23.77038 241.338637,27.7344204 241.269324,30.832553 C248.185077,30.3558431 263.63848,24.2386907 287.629532,12.4810958 C263.645188,26.6711225 250.130938,36.5211233 247.086782,42.0310981 C251.32436,44.1547701 258.14111,47.1583886 267.537035,51.0419536 C257.942632,49.1769911 250.788192,48.2860073 246.073715,48.3690024 C246.53725,55.1243192 250.295216,65.5217095 257.347613,79.5611734 C248.393224,66.0637799 241.468228,57.2396131 236.572627,53.0886733 C234.362629,55.8954142 231.940276,60.0566861 229.305567,65.572489 C229.248284,58.9818344 228.888162,54.022533 228.225201,50.6945849 C221.083478,52.3296277 206.70291,59.2623302 185.083497,71.4926927 C203.795309,57.858928 215.931321,48.2241611 221.491533,42.5883918 C217.5886,40.1884226 211.804007,37.3114814 204.137754,33.9575682 C213.738892,35.0923996 220.792637,35.4638374 225.298988,35.0718815 Z" id="path-4"></path>
        <filter x="-1.5%" y="-2.0%" width="105.9%" height="104.0%" filterUnits="objectBoundingBox" id="filter-5">
            <feOffset dx="3" dy="0" in="SourceAlpha" result="shadowOffsetOuter1"></feOffset>
            <feColorMatrix values="0 0 0 0 0.0862745098   0 0 0 0 0.0980392157   0 0 0 0 0.121568627  0 0 0 1 0" type="matrix" in="shadowOffsetOuter1"></feColorMatrix>
        </filter>
        <path d="M196,172.649965 C202.916918,174.092359 208.970467,172.906243 214.160648,169.091617 C217.882383,166.356254 220.74075,160.992382 222.735749,153 C222.112047,160.070597 222.961348,165.919929 225.283652,170.547996 C227.490953,174.946876 231.171257,178.124491 236.324564,180.080841 C229.899516,180.626984 225.115189,182.405989 221.971581,185.417856 C217.489216,189.712376 214.647572,195.239757 213.446647,202 C215.224461,193.373198 214.704543,186.689767 211.886893,181.949708 C208.888994,176.906422 203.593363,173.806507 196,172.649965 Z" id="path-6"></path>
        <filter x="-3.7%" y="-3.1%" width="114.9%" height="106.1%" filterUnits="objectBoundingBox" id="filter-7">
            <feOffset dx="3" dy="0" in="SourceAlpha" result="shadowOffsetOuter1"></feOffset>
            <feColorMatrix values="0 0 0 0 0.0862745098   0 0 0 0 0.0980392157   0 0 0 0 0.121568627  0 0 0 1 0" type="matrix" in="shadowOffsetOuter1"></feColorMatrix>
        </filter>
        <path d="M216,307.649965 C222.916918,309.092359 228.970467,307.906243 234.160648,304.091617 C237.882383,301.356254 240.74075,295.992382 242.735749,288 C242.112047,295.070597 242.961348,300.919929 245.283652,305.547996 C247.490953,309.946876 251.171257,313.124491 256.324564,315.080841 C249.899516,315.626984 245.115189,317.405989 241.971581,320.417856 C237.489216,324.712376 234.647572,330.239757 233.446647,337 C235.224461,328.373198 234.704543,321.689767 231.886893,316.949708 C228.888994,311.906422 223.593363,308.806507 216,307.649965 Z" id="path-8"></path>
        <filter x="-3.7%" y="-3.1%" width="114.9%" height="106.1%" filterUnits="objectBoundingBox" id="filter-9">
            <feOffset dx="3" dy="0" in="SourceAlpha" result="shadowOffsetOuter1"></feOffset>
            <feColorMatrix values="0 0 0 0 0.0862745098   0 0 0 0 0.0980392157   0 0 0 0 0.121568627  0 0 0 1 0" type="matrix" in="shadowOffsetOuter1"></feColorMatrix>
        </filter>
        <path d="M83,356.649965 C89.9169176,358.092359 95.9704669,356.906243 101.160648,353.091617 C104.882383,350.356254 107.74075,344.992382 109.735749,337 C109.112047,344.070597 109.961348,349.919929 112.283652,354.547996 C114.490953,358.946876 118.171257,362.124491 123.324564,364.080841 C116.899516,364.626984 112.115189,366.405989 108.971581,369.417856 C104.489216,373.712376 101.647572,379.239757 100.446647,386 C102.224461,377.373198 101.704543,370.689767 98.8868929,365.949708 C95.888994,360.906422 90.5933631,357.806507 83,356.649965 Z" id="path-10"></path>
        <filter x="-3.7%" y="-3.1%" width="114.9%" height="106.1%" filterUnits="objectBoundingBox" id="filter-11">
            <feOffset dx="3" dy="0" in="SourceAlpha" result="shadowOffsetOuter1"></feOffset>
            <feColorMatrix values="0 0 0 0 0.0862745098   0 0 0 0 0.0980392157   0 0 0 0 0.121568627  0 0 0 1 0" type="matrix" in="shadowOffsetOuter1"></feColorMatrix>
        </filter>
        <text id="text-12" font-family="Fabian-Regular, Fabian" font-size="180" font-weight="normal" letter-spacing="0.6545454" fill="#FCC8F2">
            <tspan x="483" y="545">lint</tspan>
        </text>
        <filter x="-0.8%" y="-0.9%" width="106.5%" height="103.2%" filterUnits="objectBoundingBox" id="filter-13">
            <feOffset dx="0" dy="3" in="SourceAlpha" result="shadowOffsetOuter1"></feOffset>
            <feColorMatrix values="0 0 0 0 0.0862745098   0 0 0 0 0.0980392157   0 0 0 0 0.121568627  0 0 0 1 0" type="matrix" in="shadowOffsetOuter1"></feColorMatrix>
        </filter>
        <text id="text-14" font-family="Fabian-Regular, Fabian" font-size="120" font-weight="normal" letter-spacing="0.4363637" fill="#FCC8F2">
            <tspan x="553" y="408">cfn-</tspan>
        </text>
        <filter x="-1.1%" y="-1.4%" width="105.4%" height="104.9%" filterUnits="objectBoundingBox" id="filter-15">
            <feOffset dx="0" dy="3" in="SourceAlpha" result="shadowOffsetOuter1"></feOffset>
            <feColorMatrix values="0 0 0 0 0.0862745098   0 0 0 0 0.0980392157   0 0 0 0 0.121568627  0 0 0 1 0" type="matrix" in="shadowOffsetOuter1"></feColorMatrix>
        </filter>
    </defs>
    <g id="cfn-lint-label" stroke="none" stroke-width="1" fill="none" fill-rule="evenodd">
        <path d="M699,583 L184,583 C94.5298705,583 22,510.470129 22,421 C22,331.529871 94.5298705,259 184,259 C184.025232,259 184.050462,259.000006 184.075691,259.000017 C184.025352,257.339508 184,255.672715 184,254 C184,164.529871 256.529871,92 346,92 C412.231945,92 469.180664,131.746216 494.295356,188.687847 C507.900808,184.979496 522.219236,183 537,183 C608.370738,183 668.961835,229.153128 690.555696,293.241789 C693.349997,293.081332 696.1655,293 699,293 C779.081289,293 844,357.918711 844,438 C844,518.081289 779.081289,583 699,583 Z" id="Combined-Shape" stroke="#16191F" stroke-width="6" fill="#4AC6D7" fill-rule="nonzero"></path>
        <g id="Group-2" filter="url(#filter-1)" transform="translate(406.500000, 355.500000) rotate(-343.000000) translate(-406.500000, -355.500000) translate(302.000000, -3.000000)" fill-rule="nonzero">
            <g id="Group" transform="translate(19.000000, 0.000000)">
                <path d="M3.39816756,46.1582747 C3.39773582,46.1011657 3.39751975,46.0440316 3.39751975,45.9868728 C3.39751975,21.0247932 44.6048932,0.789029473 95.4367644,0.789029473 C146.268636,0.789029473 187.476009,21.0247932 187.476009,45.9868728 C187.476009,47.4128234 187.34154,48.8233509 187.078489,50.2155642 L187.078489,333.780914 L3,333.780914 L3,46.1582747 L3.39816756,46.1582747 Z" id="Combined-Shape" stroke="#16191F" stroke-width="6" fill="#F4DB5C"></path>
                <path d="M130.934082,7.72482346 C164.156867,15.4158261 181.970412,28.2027259 184.374716,46.0855229 L187.078489,333.780914 L128.39752,333.780914 C130.088561,116.410187 130.934082,7.72482346 130.934082,7.72482346 Z" id="Combined-Shape" fill="#F1CE1B"></path>
                <ellipse id="Oval" stroke="#16191F" stroke-width="6" fill="#E2A414" cx="94.5721169" cy="333.018085" rx="94.5392447" ry="45.1978434"></ellipse>
            </g>
            <path d="M113.305245,637.843739 C113.244308,637.840674 113.183196,637.839133 113.121912,637.839133 C101.321656,637.839133 90.511725,648.69297 93.0450539,667.423176 C95.5783827,686.153382 99.0664082,696.877745 112.972077,696.877745 C113.084079,696.86533 113.195134,696.850622 113.305245,696.833651 C113.415357,696.850622 113.526412,696.86533 113.638414,696.877745 C127.544083,696.877745 131.032108,686.153382 133.565437,667.423176 C136.098766,648.69297 125.288835,637.839133 113.488579,637.839133 C113.427295,637.839133 113.366183,637.840674 113.305245,637.843739 Z M169.911885,345.225312 C160.091964,359.670885 153.610358,378.74574 150.467066,402.449877 C150.467066,440.550246 167.312717,465.31674 164.083455,573.530836 C163.084397,598.485763 151.74525,689.117235 138.013301,706.585365 C133.47313,712.796717 127.307081,716.163715 119.515152,716.686358 L119.515152,716.745356 L118.267299,716.745356 C117.956135,716.754041 117.642489,716.758384 117.326361,716.758384 L117.326361,716.745356 L110.202967,716.745356 L110.202967,716.758384 C109.886838,716.758384 109.573192,716.754041 109.262028,716.745356 L108.010247,716.745356 L108.010247,716.686094 C100.220174,716.162583 94.0554339,712.795673 89.5160265,706.585365 C75.7840771,689.117235 64.44493,598.485763 63.4458722,573.530836 C60.2166101,465.31674 77.0622612,440.550246 77.0622612,402.449877 C73.8636357,378.328459 67.2081276,359.000743 57.0957371,344.466728 C51.499786,340.356448 48.2969271,335.584088 48.2969271,330.493798 C48.2969271,315.062695 77.7307652,302.553313 114.039245,302.553313 C150.347724,302.553313 179.781562,315.062695 179.781562,330.493798 C179.781562,335.900439 176.16823,340.948406 169.911885,345.225312 Z" id="Combined-Shape" stroke="#16191F" stroke-width="6" fill="#7D7F85"></path>
            <path d="M169.853238,342.242323 C166.118756,346.424132 152.858948,364.251399 147.969713,401.122011 C147.969713,439.22238 164.815364,463.988874 161.586102,572.20297 C160.587044,597.157897 149.550911,687.275368 135.818962,704.743497 C130.861669,711.52551 123.61339,714.429469 114.074125,713.455373 C114.194021,704.669169 114.887813,700.169107 116.155498,699.955186 C126.883058,698.144925 127.407769,694.056012 127.407769,694.056012 C136.945008,683.061604 139.101706,656.556812 131.837203,644.366535 C137.689416,611.333301 140.908493,587.539162 141.494434,572.984118 C143.792172,515.907202 137.215734,489.072458 134.222249,472.037294 C127.23294,432.262911 124.374144,405.101627 128.027135,387.175677 C131.466094,370.300024 144.90079,333.106278 158.217885,313.563913 C158.217885,313.563913 160.840252,312.762175 173.344945,323.13764 C181.674631,330.048995 172.545135,339.227984 169.853238,342.242323 Z" id="Combined-Shape" fill="#687079"></path>
            <g id="Group-5" transform="translate(62.971710, 160.906199) rotate(16.000000) translate(-62.971710, -160.906199) translate(25.971710, 64.906199)" fill="#16191F">
                <circle id="Oval-6" cx="11" cy="34" r="2"></circle>
                <circle id="Oval-6" cx="26" cy="2" r="2"></circle>
                <circle id="Oval-6" cx="72" cy="190" r="2"></circle>
                <circle id="Oval-6" cx="50" cy="179" r="2"></circle>
                <circle id="Oval-6" cx="68" cy="144" r="2"></circle>
                <circle id="Oval-6" cx="43" cy="146" r="2"></circle>
                <circle id="Oval-6" cx="35" cy="101" r="2"></circle>
                <circle id="Oval-6" cx="37" cy="34" r="2"></circle>
                <circle id="Oval-6" cx="2" cy="6" r="2"></circle>
                <circle id="Oval-6" cx="28" cy="122" r="2"></circle>
                <circle id="Oval-6" cx="35" cy="71" r="2"></circle>
                <circle id="Oval-6" cx="15" cy="78" r="2"></circle>
            </g>
        </g>
        <g id="Group-3" transform="translate(45.000000, 139.000000)" fill-rule="nonzero">
            <g id="Combined-Shape" transform="translate(98.034721, 228.368269) rotate(-19.000000) translate(-98.034721, -228.368269) ">
                <use fill="black" fill-opacity="1" filter="url(#filter-3)" xlink:href="#path-2"></use>
                <use fill="#FFFFFF" xlink:href="#path-2"></use>
            </g>
            <g id="Combined-Shape" transform="translate(236.356515, 41.943382) rotate(-5.000000) translate(-236.356515, -41.943382) ">
                <use fill="black" fill-opacity="1" filter="url(#filter-5)" xlink:href="#path-4"></use>
                <use fill="#FFFFFF" xlink:href="#path-4"></use>
            </g>
            <g id="Rectangle-6">
                <use fill="black" fill-opacity="1" filter="url(#filter-7)" xlink:href="#path-6"></use>
                <use fill="#FFFFFF" xlink:href="#path-6"></use>
            </g>
            <g id="Rectangle-6">
                <use fill="black" fill-opacity="1" filter="url(#filter-9)" xlink:href="#path-8"></use>
                <use fill="#FFFFFF" xlink:href="#path-8"></use>
            </g>
            <g id="Rectangle-6">
                <use fill="black" fill-opacity="1" filter="url(#filter-11)" xlink:href="#path-10"></use>
                <use fill="#FFFFFF" xlink:href="#path-10"></use>
            </g>
        </g>
        <g id="lint" stroke="#16191F">
            <use fill="#FCC8F2" fill-opacity="1" stroke-opacity="1" filter="url(#filter-13)" xlink:href="#text-12"></use>
            <use fill="#FCC8F2" fill-opacity="1" stroke-opacity="1" xlink:href="#text-12"></use>
            <use xlink:href="#text-12"></use>
        </g>
        <g id="cfn-" stroke="#16191F">
            <use fill="#FCC8F2" fill-opacity="1" stroke-opacity="1" filter="url(#filter-15)" xlink:href="#text-14"></use>
            <use fill="#FCC8F2" fill-opacity="1" stroke-opacity="1" xlink:href="#text-14"></use>
            <use xlink:href="#text-14"></use>
        </g>
    </g>
</svg>