<svg xmlns="http://www.w3.org/2000/svg" viewBox="0 0 828 700.6"><defs><style>.cls-1{isolation:isolate;}.cls-2{fill:#4ac6d7;}.cls-2,.cls-3,.cls-5,.cls-6{stroke:#16191f;stroke-width:6px;}.cls-3{fill:#f4db5c;}.cls-4{fill:#f1ce1b;}.cls-5{fill:#e2a414;}.cls-6{fill:#7d7f85;}.cls-7{fill:#687079;}.cls-8{fill:#16191f;}.cls-9{opacity:0.75;mix-blend-mode:multiply;}.cls-10{fill:#fff;}.cls-11,.cls-12{stroke:#000;stroke-miterlimit:10;stroke-width:2px;fill-rule:evenodd;}.cls-12{fill:#fcc8f2;}</style></defs><title>cfn-lint-label-b2</title><g class="cls-1"><g id="Layer_1" data-name="Layer 1"><g id="cfn-lint-label-b2"><path id="Combined-Shape" class="cls-2" d="M699,583H184a162,162,0,0,1,0-324h.08c-.05-1.66-.08-3.33-.08-5a162,162,0,0,1,310.3-65.31A162.23,162.23,0,0,1,690.56,293.24c2.79-.16,5.61-.24,8.44-.24a145,145,0,0,1,0,290Z" transform="translate(-19 -5.63)"/><g id="Group-2"><g id="Group"><path class="cls-3" d="M419.31,32.8s0-.11,0-.16C426.65,8.77,472,1.46,520.59,16.32s82.1,46.27,74.8,70.14a22.78,22.78,0,0,1-1.62,3.92l-82.9,271.18-176-53.82,84.09-275Z" transform="translate(-19 -5.63)"/><path class="cls-4" d="M551,32.51c29,17,42.56,31.05,40,48.58-.07.49-.49,4.2-.64,4.68L507.49,360.48l-56-17.48Z" transform="translate(-19 -5.63)"/><ellipse id="Oval" class="cls-5" cx="422.63" cy="333.78" rx="45.2" ry="94.54" transform="translate(-39.14 634.73) rotate(-73)"/></g><path class="cls-6" d="M333.25,625.21l-.18-.06c-11.28-3.45-24.79,3.77-27.84,22.43s-2.86,29.92,10.44,34l.33,0,.31.14c13.3,4.07,19.77-5.17,27.66-22.34s.74-30.71-10.55-34.16ZM472.93,361.93q-20.42,16.41-35.32,49c-11.14,36.43-2.27,65-37,167.59-8.25,23.57-45.59,106.92-63.83,119.61a23.83,23.83,0,0,1-20.64,4.26l0,.05-1.2-.36-.9-.27h0l-6.82-2.08h0l-.9-.29-1.19-.36v-.06A23.85,23.85,0,0,1,290.4,684c-8-20.71,7.63-110.7,14-134.86,28.55-104.43,51.9-123.19,63-159.62q6-36-2.14-61.29c-4.15-5.57-5.82-11.07-4.33-15.93,4.51-14.76,36.32-18.12,71-7.5s59.21,31.18,54.7,45.94C485.1,355.9,480.17,359.67,472.93,361.93Z" transform="translate(-19 -5.63)"/><path class="cls-7" d="M473.75,359.06C469,362,451.06,375.14,435.61,409c-11.14,36.43-2.27,65-37,167.59-8.25,23.57-45.15,106.52-63.39,119.21q-10.08,7.56-23.34,2,4-12.54,5.93-12.3c10.79,1.41,12.49-2.35,12.49-2.35,12.33-7.72,22.15-32.44,18.76-46.22q22.89-44.82,30.11-65.44c18.88-53.91,20.44-81.5,22.56-98.66,4.94-40.08,10.15-66.89,18.89-83,8.22-15.13,31.94-46.77,50.39-61.57,0,0,2.74,0,11.67,13.58C488.62,350.86,477.21,357,473.75,359.06Z" transform="translate(-19 -5.63)"/><g id="Group-5"><circle id="Oval-6" class="cls-8" cx="417.52" cy="82.61" r="2"/><circle class="cls-8" cx="447.53" cy="63.95" r="2"/><circle class="cls-8" cx="383.71" cy="246.67" r="2"/><circle class="cls-8" cx="371.25" cy="225.46" r="2"/><circle class="cls-8" cx="405.41" cy="205.91" r="2"/><circle class="cls-8" cx="383.36" cy="193.97" r="2"/><circle class="cls-8" cx="401.16" cy="151.88" r="2"/><circle class="cls-8" cx="439.32" cy="96.78" r="2"/><circle class="cls-8" cx="425.22" cy="54.23" r="2"/><circle class="cls-8" cx="383.85" cy="165.68" r="2"/><circle class="cls-8" cx="417.5" cy="126.72" r="2"/><circle class="cls-8" cx="396.91" cy="121.69" r="2"/></g></g><g id="Group-3"><g class="cls-9"><path id="path-2" d="M123.57,363.52q-5-13.2-31.1-41.94,28.85,25.29,43.44,30.76,3.48-7.86,6.58-23,3.85,15,6.6,22.65,16.07-8.57,59.72-56.52-37.53,48.54-44.9,66.6,11.44,1.43,34.5,2.82-25.4,3.57-35.87,7.86,3.5,14.65,35.31,41Q166.49,390,152.1,384.62q-2.76,8.13-4.41,22.52-5.13-14.49-9.16-21.61-15.12,9.29-55.23,53.89,32.27-47.07,39.42-63.47a252.86,252.86,0,0,0-30.06-3.84Q113.41,367.61,123.57,363.52Z" transform="translate(-19 -5.63)"/><path d="M123.57,363.52q-5-13.2-31.1-41.94,28.85,25.29,43.44,30.76,3.48-7.86,6.58-23,3.85,15,6.6,22.65,16.07-8.57,59.72-56.52-37.53,48.54-44.9,66.6,11.44,1.43,34.5,2.82-25.4,3.57-35.87,7.86,3.5,14.65,35.31,41Q166.49,390,152.1,384.62q-2.76,8.13-4.41,22.52-5.13-14.49-9.16-21.61-15.12,9.29-55.23,53.89,32.27-47.07,39.42-63.47a252.86,252.86,0,0,0-30.06-3.84Q113.41,367.61,123.57,363.52Z" transform="translate(-19 -5.63)"/><path id="path-4" d="M272.74,175.06q-1-8.48-13.72-29.66,14.93,18.28,23.11,22.75a91.64,91.64,0,0,0,5.8-10.61c0,4.85.15,8.81.35,11.91q10.28-1.62,44.59-22.33-34,24.34-37.82,33,6.61,2.61,21.16,7.19-14.58-1.53-21.61-.79,1.57,10,13.95,30.09-15.15-19-23-24.56a69.5,69.5,0,0,0-6.15,13.07A86.18,86.18,0,0,0,277,190.37q-10.45,3.38-41.17,24.48Q262,192,269.6,182.88a148.49,148.49,0,0,0-18-7.08Q266.07,176.24,272.74,175.06Z" transform="translate(-19 -5.63)"/><path d="M272.74,175.06q-1-8.48-13.72-29.66,14.93,18.28,23.11,22.75a91.64,91.64,0,0,0,5.8-10.61c0,4.85.15,8.81.35,11.91q10.28-1.62,44.59-22.33-34,24.34-37.82,33,6.61,2.61,21.16,7.19-14.58-1.53-21.61-.79,1.57,10,13.95,30.09-15.15-19-23-24.56a69.5,69.5,0,0,0-6.15,13.07A86.18,86.18,0,0,0,277,190.37q-10.45,3.38-41.17,24.48Q262,192,269.6,182.88a148.49,148.49,0,0,0-18-7.08Q266.07,176.24,272.74,175.06Z" transform="translate(-19 -5.63)"/><path id="path-6" d="M244,311.65q10.38,2.16,18.16-3.56,5.58-4.09,8.58-16.09-.94,10.61,2.54,17.55a19.5,19.5,0,0,0,11,9.53q-9.63.82-14.35,5.34A29.36,29.36,0,0,0,261.45,341q2.66-12.94-1.56-20.05Q255.39,313.39,244,311.65Z" transform="translate(-19 -5.63)"/><path d="M244,311.65q10.38,2.16,18.16-3.56,5.58-4.09,8.58-16.09-.94,10.61,2.54,17.55a19.5,19.5,0,0,0,11,9.53q-9.63.82-14.35,5.34A29.36,29.36,0,0,0,261.45,341q2.66-12.94-1.56-20.05Q255.39,313.39,244,311.65Z" transform="translate(-19 -5.63)"/><path id="path-8" d="M264,446.65q10.38,2.16,18.16-3.56,5.58-4.09,8.58-16.09-.94,10.61,2.54,17.55a19.5,19.5,0,0,0,11,9.53q-9.63.82-14.35,5.34A29.36,29.36,0,0,0,281.45,476q2.66-12.94-1.56-20.05Q275.39,448.39,264,446.65Z" transform="translate(-19 -5.63)"/><path d="M264,446.65q10.38,2.16,18.16-3.56,5.58-4.09,8.58-16.09-.94,10.61,2.54,17.55a19.5,19.5,0,0,0,11,9.53q-9.63.82-14.35,5.34A29.36,29.36,0,0,0,281.45,476q2.66-12.94-1.56-20.05Q275.39,448.39,264,446.65Z" transform="translate(-19 -5.63)"/><path id="path-10" d="M131,495.65q10.38,2.16,18.16-3.56,5.58-4.09,8.58-16.09-.94,10.61,2.54,17.55a19.5,19.5,0,0,0,11,9.53q-9.63.82-14.35,5.34A29.36,29.36,0,0,0,148.45,525q2.66-12.94-1.56-20.05Q142.39,497.39,131,495.65Z" transform="translate(-19 -5.63)"/><path d="M131,495.65q10.38,2.16,18.16-3.56,5.58-4.09,8.58-16.09-.94,10.61,2.54,17.55a19.5,19.5,0,0,0,11,9.53q-9.63.82-14.35,5.34A29.36,29.36,0,0,0,148.45,525q2.66-12.94-1.56-20.05Q142.39,497.39,131,495.65Z" transform="translate(-19 -5.63)"/></g><path id="path-2-2" data-name="path-2" d="M120.57,363.52q-5-13.2-31.1-41.94,28.85,25.29,43.44,30.76,3.48-7.86,6.58-23,3.85,15,6.6,22.65,16.07-8.57,59.72-56.52-37.53,48.54-44.9,66.6,11.44,1.43,34.5,2.82-25.4,3.57-35.87,7.86,3.5,14.65,35.31,41Q163.49,390,149.1,384.62q-2.76,8.13-4.41,22.52-5.13-14.49-9.16-21.61-15.12,9.29-55.23,53.89,32.27-47.07,39.42-63.47a252.86,252.86,0,0,0-30.06-3.84Q110.41,367.61,120.57,363.52Z" transform="translate(-19 -5.63)"/><path class="cls-10" d="M120.57,363.52q-5-13.2-31.1-41.94,28.85,25.29,43.44,30.76,3.48-7.86,6.58-23,3.85,15,6.6,22.65,16.07-8.57,59.72-56.52-37.53,48.54-44.9,66.6,11.44,1.43,34.5,2.82-25.4,3.57-35.87,7.86,3.5,14.65,35.31,41Q163.49,390,149.1,384.62q-2.76,8.13-4.41,22.52-5.13-14.49-9.16-21.61-15.12,9.29-55.23,53.89,32.27-47.07,39.42-63.47a252.86,252.86,0,0,0-30.06-3.84Q110.41,367.61,120.57,363.52Z" transform="translate(-19 -5.63)"/><path id="path-4-2" data-name="path-4" d="M269.74,175.06q-1-8.48-13.72-29.66,14.93,18.28,23.11,22.75a91.64,91.64,0,0,0,5.8-10.61c0,4.85.15,8.81.35,11.91q10.28-1.62,44.59-22.33-34,24.34-37.82,33,6.61,2.61,21.16,7.19-14.58-1.53-21.61-.79,1.57,10,13.95,30.09-15.15-19-23-24.56a69.5,69.5,0,0,0-6.15,13.07A86.18,86.18,0,0,0,274,190.37q-10.45,3.38-41.17,24.48Q259,192,266.6,182.88a148.49,148.49,0,0,0-18-7.08Q263.07,176.24,269.74,175.06Z" transform="translate(-19 -5.63)"/><path class="cls-10" d="M269.74,175.06q-1-8.48-13.72-29.66,14.93,18.28,23.11,22.75a91.64,91.64,0,0,0,5.8-10.61c0,4.85.15,8.81.35,11.91q10.28-1.62,44.59-22.33-34,24.34-37.82,33,6.61,2.61,21.16,7.19-14.58-1.53-21.61-.79,1.57,10,13.95,30.09-15.15-19-23-24.56a69.5,69.5,0,0,0-6.15,13.07A86.18,86.18,0,0,0,274,190.37q-10.45,3.38-41.17,24.48Q259,192,266.6,182.88a148.49,148.49,0,0,0-18-7.08Q263.07,176.24,269.74,175.06Z" transform="translate(-19 -5.63)"/><g id="Rectangle-6"><path id="path-6-2" data-name="path-6" d="M241,311.65q10.38,2.16,18.16-3.56,5.58-4.09,8.58-16.09-.94,10.61,2.54,17.55a19.5,19.5,0,0,0,11,9.53q-9.63.82-14.35,5.34A29.36,29.36,0,0,0,258.45,341q2.66-12.94-1.56-20.05Q252.39,313.39,241,311.65Z" transform="translate(-19 -5.63)"/><path class="cls-10" d="M241,311.65q10.38,2.16,18.16-3.56,5.58-4.09,8.58-16.09-.94,10.61,2.54,17.55a19.5,19.5,0,0,0,11,9.53q-9.63.82-14.35,5.34A29.36,29.36,0,0,0,258.45,341q2.66-12.94-1.56-20.05Q252.39,313.39,241,311.65Z" transform="translate(-19 -5.63)"/></g><path id="path-8-2" data-name="path-8" d="M261,446.65q10.38,2.16,18.16-3.56,5.58-4.09,8.58-16.09-.94,10.61,2.54,17.55a19.5,19.5,0,0,0,11,9.53q-9.63.82-14.35,5.34A29.36,29.36,0,0,0,278.45,476q2.66-12.94-1.56-20.05Q272.39,448.39,261,446.65Z" transform="translate(-19 -5.63)"/><path class="cls-10" d="M261,446.65q10.38,2.16,18.16-3.56,5.58-4.09,8.58-16.09-.94,10.61,2.54,17.55a19.5,19.5,0,0,0,11,9.53q-9.63.82-14.35,5.34A29.36,29.36,0,0,0,278.45,476q2.66-12.94-1.56-20.05Q272.39,448.39,261,446.65Z" transform="translate(-19 -5.63)"/><path id="path-10-2" data-name="path-10" d="M128,495.65q10.38,2.16,18.16-3.56,5.58-4.09,8.58-16.09-.94,10.61,2.54,17.55a19.5,19.5,0,0,0,11,9.53q-9.63.82-14.35,5.34A29.36,29.36,0,0,0,145.45,525q2.66-12.94-1.56-20.05Q139.39,497.39,128,495.65Z" transform="translate(-19 -5.63)"/><path class="cls-10" d="M128,495.65q10.38,2.16,18.16-3.56,5.58-4.09,8.58-16.09-.94,10.61,2.54,17.55a19.5,19.5,0,0,0,11,9.53q-9.63.82-14.35,5.34A29.36,29.36,0,0,0,145.45,525q2.66-12.94-1.56-20.05Q139.39,497.39,128,495.65Z" transform="translate(-19 -5.63)"/></g><g id="lint"><g class="cls-9"><path id="path-12" class="cls-11" d="M529.28,545H493.46l26.46-125.28h17.82L515.06,527.18h17.82Zm45.65-89.46h-18l3.78-17.82h17.82ZM573.85,545H538l15.12-71.64h18l-11.34,53.82h17.64Zm98.22,0H636.25l11.34-53.64H612L600.61,545h-18l15.12-71.64h71.46l-11.52,53.82h18Zm56.45,0H692.7l11.16-53.64H686l4-18h17.82l11.34-53.64h18l-11.34,53.64h17.64l-4,18H721.68l-7.56,35.82h18Z" transform="translate(-19 -5.63)"/><path class="cls-11" d="M529.28,545H493.46l26.46-125.28h17.82L515.06,527.18h17.82Zm45.65-89.46h-18l3.78-17.82h17.82ZM573.85,545H538l15.12-71.64h18l-11.34,53.82h17.64Zm98.22,0H636.25l11.34-53.64H612L600.61,545h-18l15.12-71.64h71.46l-11.52,53.82h18Zm56.45,0H692.7l11.16-53.64H686l4-18h17.82l11.34-53.64h18l-11.34,53.64h17.64l-4,18H721.68l-7.56,35.82h18Z" transform="translate(-19 -5.63)"/></g><path id="path-12-2" data-name="path-12" class="cls-11" d="M527.28,545H491.46l26.46-125.28h17.82L513.06,527.18h17.82Zm45.65-89.46h-18l3.78-17.82h17.82ZM571.85,545H536l15.12-71.64h18l-11.34,53.82h17.64Zm98.22,0H634.25l11.34-53.64H610L598.61,545h-18l15.12-71.64h71.46l-11.52,53.82h18Zm56.45,0H690.7l11.16-53.64H684l4-18h17.82l11.34-53.64h18l-11.34,53.64h17.64l-4,18H719.68l-7.56,35.82h18Z" transform="translate(-19 -5.63)"/><path class="cls-12" d="M527.28,545H491.46l26.46-125.28h17.82L513.06,527.18h17.82Zm45.65-89.46h-18l3.78-17.82h17.82ZM571.85,545H536l15.12-71.64h18l-11.34,53.82h17.64Zm98.22,0H634.25l11.34-53.64H610L598.61,545h-18l15.12-71.64h71.46l-11.52,53.82h18Zm56.45,0H690.7l11.16-53.64H684l4-18h17.82l11.34-53.64h18l-11.34,53.64h17.64l-4,18H719.68l-7.56,35.82h18Z" transform="translate(-19 -5.63)"/></g><g id="cfn-"><g class="cls-9"><path id="path-14" class="cls-11" d="M600.36,408H560.64l10.08-47.76h39.72l-2.52,12H580.08l-5,23.88h27.84Zm48.8-35.76H637.28l-12.72,59.64H600.92l2.52-12H615.2l10.08-47.64H613.4l2.64-12h12l7.56-35.76h23.64l-2.4,12H645l-5,23.76H651.8ZM709,408H685.11l7.56-35.76H668.91L661.35,408h-12l10.08-47.76h47.64l-7.68,35.88h12Zm35.24-35.76H720.47l2.64-12h23.64Z" transform="translate(-19 -5.63)"/><path class="cls-11" d="M600.36,408H560.64l10.08-47.76h39.72l-2.52,12H580.08l-5,23.88h27.84Zm48.8-35.76H637.28l-12.72,59.64H600.92l2.52-12H615.2l10.08-47.64H613.4l2.64-12h12l7.56-35.76h23.64l-2.4,12H645l-5,23.76H651.8ZM709,408H685.11l7.56-35.76H668.91L661.35,408h-12l10.08-47.76h47.64l-7.68,35.88h12Zm35.24-35.76H720.47l2.64-12h23.64Z" transform="translate(-19 -5.63)"/></g><path id="path-14-2" data-name="path-14" class="cls-11" d="M598.36,408H558.64l10.08-47.76h39.72l-2.52,12H578.08l-5,23.88h27.84Zm48.8-35.76H635.28l-12.72,59.64H598.92l2.52-12H613.2l10.08-47.64H611.4l2.64-12h12l7.56-35.76h23.64l-2.4,12H643l-5,23.76H649.8ZM707,408H683.11l7.56-35.76H666.91L659.35,408h-12l10.08-47.76h47.64l-7.68,35.88h12Zm35.24-35.76H718.47l2.64-12h23.64Z" transform="translate(-19 -5.63)"/><path class="cls-12" d="M598.36,408H558.64l10.08-47.76h39.72l-2.52,12H578.08l-5,23.88h27.84Zm48.8-35.76H635.28l-12.72,59.64H598.92l2.52-12H613.2l10.08-47.64H611.4l2.64-12h12l7.56-35.76h23.64l-2.4,12H643l-5,23.76H649.8ZM707,408H683.11l7.56-35.76H666.91L659.35,408h-12l10.08-47.76h47.64l-7.68,35.88h12Zm35.24-35.76H718.47l2.64-12h23.64Z" transform="translate(-19 -5.63)"/></g></g></g></g></svg>
