<?xml version="1.0" encoding="UTF-8"?>
<svg width="845px" height="712px" viewBox="0 0 845 712" version="1.1" xmlns="http://www.w3.org/2000/svg" xmlns:xlink="http://www.w3.org/1999/xlink">
    <!-- Generator: Sketch 51.3 (57544) - http://www.bohemiancoding.com/sketch -->
    <title>cfn-lint-nolabel</title>
    <desc>Created with Sketch.</desc>
    <defs>
        <filter x="-0.5%" y="-0.6%" width="102.9%" height="101.4%" filterUnits="objectBoundingBox" id="filter-1">
            <feOffset dx="1" dy="2" in="SourceAlpha" result="shadowOffsetOuter1"></feOffset>
            <feColorMatrix values="0 0 0 0 0.0862745098   0 0 0 0 0.0980392157   0 0 0 0 0.121568627  0 0 0 1 0" type="matrix" in="shadowOffsetOuter1" result="shadowMatrixOuter1"></feColorMatrix>
            <feMerge>
                <feMergeNode in="shadowMatrixOuter1"></feMergeNode>
                <feMergeNode in="SourceGraphic"></feMergeNode>
            </feMerge>
        </filter>
        <path d="M115.045513,227.419869 C114.758115,218.007928 109.506904,201.414531 99.2918834,177.639678 C111.993308,199.837037 122.346905,214.245517 130.352673,220.865119 C134.255627,216.664106 138.827697,210.120156 144.068885,201.233267 C143.245792,211.526183 142.868474,219.383175 142.93693,224.804244 C154.918515,222.892613 179.875451,211.559727 217.807738,190.805585 C183.605945,213.259739 162.226251,229.377719 153.668657,239.159525 C160.569587,242.540943 171.137118,247.173309 185.37125,253.056623 C168.588442,249.794376 156.43026,248.378177 148.896704,248.808027 C147.915152,258.805805 154.590208,275.568749 168.921874,299.09686 C154.317522,277.29749 143.062433,263.149005 135.156606,256.651405 C131.650187,261.177194 127.815307,267.798096 123.651966,276.514112 C123.562857,266.261759 123.019805,258.454739 122.022808,253.093053 C110.479676,255.671151 87.2259747,266.663947 52.2617034,286.071442 C82.8155833,263.40143 102.12521,247.676022 110.190584,238.895217 C103.911431,235.126175 94.8552692,230.653204 83.0220989,225.476305 C97.0790168,227.137799 107.753488,227.785653 115.045513,227.419869 Z" id="path-2"></path>
        <filter x="-0.9%" y="-1.2%" width="103.6%" height="102.5%" filterUnits="objectBoundingBox" id="filter-3">
            <feOffset dx="3" dy="0" in="SourceAlpha" result="shadowOffsetOuter1"></feOffset>
            <feColorMatrix values="0 0 0 0 0.0862745098   0 0 0 0 0.0980392157   0 0 0 0 0.121568627  0 0 0 1 0" type="matrix" in="shadowOffsetOuter1"></feColorMatrix>
        </filter>
        <path d="M257.298988,35.0718815 C257.121103,29.3802159 253.426749,19.1314524 246.215928,4.32559086 C255.059785,17.3377805 262.070726,25.5631759 267.248751,29.0017771 C269.242385,26.4918605 271.477017,23.1380788 273.952648,18.9404318 C273.566412,23.77038 273.338637,27.7344204 273.269324,30.832553 C280.185077,30.3558431 295.63848,24.2386907 319.629532,12.4810958 C295.645188,26.6711225 282.130938,36.5211233 279.086782,42.0310981 C283.32436,44.1547701 290.14111,47.1583886 299.537035,51.0419536 C289.942632,49.1769911 282.788192,48.2860073 278.073715,48.3690024 C278.53725,55.1243192 282.295216,65.5217095 289.347613,79.5611734 C280.393224,66.0637799 273.468228,57.2396131 268.572627,53.0886733 C266.362629,55.8954142 263.940276,60.0566861 261.305567,65.572489 C261.248284,58.9818344 260.888162,54.022533 260.225201,50.6945849 C253.083478,52.3296277 238.70291,59.2623302 217.083497,71.4926927 C235.795309,57.858928 247.931321,48.2241611 253.491533,42.5883918 C249.5886,40.1884226 243.804007,37.3114814 236.137754,33.9575682 C245.738892,35.0923996 252.792637,35.4638374 257.298988,35.0718815 Z" id="path-4"></path>
        <filter x="-1.5%" y="-2.0%" width="105.9%" height="104.0%" filterUnits="objectBoundingBox" id="filter-5">
            <feOffset dx="3" dy="0" in="SourceAlpha" result="shadowOffsetOuter1"></feOffset>
            <feColorMatrix values="0 0 0 0 0.0862745098   0 0 0 0 0.0980392157   0 0 0 0 0.121568627  0 0 0 1 0" type="matrix" in="shadowOffsetOuter1"></feColorMatrix>
        </filter>
        <path d="M218,202.649965 C224.916918,204.092359 230.970467,202.906243 236.160648,199.091617 C239.882383,196.356254 242.74075,190.992382 244.735749,183 C244.112047,190.070597 244.961348,195.919929 247.283652,200.547996 C249.490953,204.946876 253.171257,208.124491 258.324564,210.080841 C251.899516,210.626984 247.115189,212.405989 243.971581,215.417856 C239.489216,219.712376 236.647572,225.239757 235.446647,232 C237.224461,223.373198 236.704543,216.689767 233.886893,211.949708 C230.888994,206.906422 225.593363,203.806507 218,202.649965 Z" id="path-6"></path>
        <filter x="-3.7%" y="-3.1%" width="114.9%" height="106.1%" filterUnits="objectBoundingBox" id="filter-7">
            <feOffset dx="3" dy="0" in="SourceAlpha" result="shadowOffsetOuter1"></feOffset>
            <feColorMatrix values="0 0 0 0 0.0862745098   0 0 0 0 0.0980392157   0 0 0 0 0.121568627  0 0 0 1 0" type="matrix" in="shadowOffsetOuter1"></feColorMatrix>
        </filter>
        <path d="M298,142.649965 C304.916918,144.092359 310.970467,142.906243 316.160648,139.091617 C319.882383,136.356254 322.74075,130.992382 324.735749,123 C324.112047,130.070597 324.961348,135.919929 327.283652,140.547996 C329.490953,144.946876 333.171257,148.124491 338.324564,150.080841 C331.899516,150.626984 327.115189,152.405989 323.971581,155.417856 C319.489216,159.712376 316.647572,165.239757 315.446647,172 C317.224461,163.373198 316.704543,156.689767 313.886893,151.949708 C310.888994,146.906422 305.593363,143.806507 298,142.649965 Z" id="path-8"></path>
        <filter x="-3.7%" y="-3.1%" width="114.9%" height="106.1%" filterUnits="objectBoundingBox" id="filter-9">
            <feOffset dx="3" dy="0" in="SourceAlpha" result="shadowOffsetOuter1"></feOffset>
            <feColorMatrix values="0 0 0 0 0.0862745098   0 0 0 0 0.0980392157   0 0 0 0 0.121568627  0 0 0 1 0" type="matrix" in="shadowOffsetOuter1"></feColorMatrix>
        </filter>
        <path d="M238,317.649965 C244.916918,319.092359 250.970467,317.906243 256.160648,314.091617 C259.882383,311.356254 262.74075,305.992382 264.735749,298 C264.112047,305.070597 264.961348,310.919929 267.283652,315.547996 C269.490953,319.946876 273.171257,323.124491 278.324564,325.080841 C271.899516,325.626984 267.115189,327.405989 263.971581,330.417856 C259.489216,334.712376 256.647572,340.239757 255.446647,347 C257.224461,338.373198 256.704543,331.689767 253.886893,326.949708 C250.888994,321.906422 245.593363,318.806507 238,317.649965 Z" id="path-10"></path>
        <filter x="-3.7%" y="-3.1%" width="114.9%" height="106.1%" filterUnits="objectBoundingBox" id="filter-11">
            <feOffset dx="3" dy="0" in="SourceAlpha" result="shadowOffsetOuter1"></feOffset>
            <feColorMatrix values="0 0 0 0 0.0862745098   0 0 0 0 0.0980392157   0 0 0 0 0.121568627  0 0 0 1 0" type="matrix" in="shadowOffsetOuter1"></feColorMatrix>
        </filter>
        <path d="M85,366.649965 C91.9169176,368.092359 97.9704669,366.906243 103.160648,363.091617 C106.882383,360.356254 109.74075,354.992382 111.735749,347 C111.112047,354.070597 111.961348,359.919929 114.283652,364.547996 C116.490953,368.946876 120.171257,372.124491 125.324564,374.080841 C118.899516,374.626984 114.115189,376.405989 110.971581,379.417856 C106.489216,383.712376 103.647572,389.239757 102.446647,396 C104.224461,387.373198 103.704543,380.689767 100.886893,375.949708 C97.888994,370.906422 92.5933631,367.806507 85,366.649965 Z" id="path-12"></path>
        <filter x="-3.7%" y="-3.1%" width="114.9%" height="106.1%" filterUnits="objectBoundingBox" id="filter-13">
            <feOffset dx="3" dy="0" in="SourceAlpha" result="shadowOffsetOuter1"></feOffset>
            <feColorMatrix values="0 0 0 0 0.0862745098   0 0 0 0 0.0980392157   0 0 0 0 0.121568627  0 0 0 1 0" type="matrix" in="shadowOffsetOuter1"></feColorMatrix>
        </filter>
        <path d="M0,266.649965 C6.9169176,268.092359 12.9704669,266.906243 18.1606478,263.091617 C21.8823832,260.356254 24.7407504,254.992382 26.7357492,247 C26.1120472,254.070597 26.9613481,259.919929 29.2836519,264.547996 C31.490953,268.946876 35.1712569,272.124491 40.3245636,274.080841 C33.8995161,274.626984 29.1151886,276.405989 25.971581,279.417856 C21.4892165,283.712376 18.6475719,289.239757 17.4466472,296 C19.2244612,287.373198 18.7045431,280.689767 15.8868929,275.949708 C12.888994,270.906422 7.59336306,267.806507 0,266.649965 Z" id="path-14"></path>
        <filter x="-3.7%" y="-3.1%" width="114.9%" height="106.1%" filterUnits="objectBoundingBox" id="filter-15">
            <feOffset dx="3" dy="0" in="SourceAlpha" result="shadowOffsetOuter1"></feOffset>
            <feColorMatrix values="0 0 0 0 0.0862745098   0 0 0 0 0.0980392157   0 0 0 0 0.121568627  0 0 0 1 0" type="matrix" in="shadowOffsetOuter1"></feColorMatrix>
        </filter>
    </defs>
    <g id="cfn-lint-nolabel" stroke="none" stroke-width="1" fill="none" fill-rule="evenodd">
        <path d="M690,565 L175,565 C85.5298705,565 13,492.470129 13,403 C13,313.529871 85.5298705,241 175,241 C175.025232,241 175.050462,241.000006 175.075691,241.000017 C175.025352,239.339508 175,237.672715 175,236 C175,146.529871 247.529871,74 337,74 C403.231945,74 460.180664,113.746216 485.295356,170.687847 C498.900808,166.979496 513.219236,165 528,165 C599.370738,165 659.961835,211.153128 681.555696,275.241789 C684.349997,275.081332 687.1655,275 690,275 C770.081289,275 835,339.918711 835,420 C835,500.081289 770.081289,565 690,565 Z" id="Combined-Shape" stroke="#16191F" stroke-width="6" fill="#4AC6D7" fill-rule="nonzero"></path>
        <g id="Group-2" filter="url(#filter-1)" transform="translate(477.500000, 357.500000) rotate(-343.000000) translate(-477.500000, -357.500000) translate(373.000000, -1.000000)" fill-rule="nonzero">
            <g id="Group" transform="translate(19.000000, 0.000000)">
                <path d="M3.39816756,46.1582747 C3.39773582,46.1011657 3.39751975,46.0440316 3.39751975,45.9868728 C3.39751975,21.0247932 44.6048932,0.789029473 95.4367644,0.789029473 C146.268636,0.789029473 187.476009,21.0247932 187.476009,45.9868728 C187.476009,47.4128234 187.34154,48.8233509 187.078489,50.2155642 L187.078489,333.780914 L3,333.780914 L3,46.1582747 L3.39816756,46.1582747 Z" id="Combined-Shape" stroke="#16191F" stroke-width="6" fill="#F4DB5C"></path>
                <path d="M130.934082,7.72482346 C164.156867,15.4158261 181.970412,28.2027259 184.374716,46.0855229 L187.078489,333.780914 L128.39752,333.780914 C130.088561,116.410187 130.934082,7.72482346 130.934082,7.72482346 Z" id="Combined-Shape" fill="#F1CE1B"></path>
                <ellipse id="Oval" stroke="#16191F" stroke-width="6" fill="#E2A414" cx="94.5721169" cy="333.018085" rx="94.5392447" ry="45.1978434"></ellipse>
            </g>
            <path d="M113.305245,637.843739 C113.244308,637.840674 113.183196,637.839133 113.121912,637.839133 C101.321656,637.839133 90.511725,648.69297 93.0450539,667.423176 C95.5783827,686.153382 99.0664082,696.877745 112.972077,696.877745 C113.084079,696.86533 113.195134,696.850622 113.305245,696.833651 C113.415357,696.850622 113.526412,696.86533 113.638414,696.877745 C127.544083,696.877745 131.032108,686.153382 133.565437,667.423176 C136.098766,648.69297 125.288835,637.839133 113.488579,637.839133 C113.427295,637.839133 113.366183,637.840674 113.305245,637.843739 Z M169.911885,345.225312 C160.091964,359.670885 153.610358,378.74574 150.467066,402.449877 C150.467066,440.550246 167.312717,465.31674 164.083455,573.530836 C163.084397,598.485763 151.74525,689.117235 138.013301,706.585365 C133.47313,712.796717 127.307081,716.163715 119.515152,716.686358 L119.515152,716.745356 L118.267299,716.745356 C117.956135,716.754041 117.642489,716.758384 117.326361,716.758384 L117.326361,716.745356 L110.202967,716.745356 L110.202967,716.758384 C109.886838,716.758384 109.573192,716.754041 109.262028,716.745356 L108.010247,716.745356 L108.010247,716.686094 C100.220174,716.162583 94.0554339,712.795673 89.5160265,706.585365 C75.7840771,689.117235 64.44493,598.485763 63.4458722,573.530836 C60.2166101,465.31674 77.0622612,440.550246 77.0622612,402.449877 C73.8636357,378.328459 67.2081276,359.000743 57.0957371,344.466728 C51.499786,340.356448 48.2969271,335.584088 48.2969271,330.493798 C48.2969271,315.062695 77.7307652,302.553313 114.039245,302.553313 C150.347724,302.553313 179.781562,315.062695 179.781562,330.493798 C179.781562,335.900439 176.16823,340.948406 169.911885,345.225312 Z" id="Combined-Shape" stroke="#16191F" stroke-width="6" fill="#7D7F85"></path>
            <path d="M169.853238,342.242323 C166.118756,346.424132 152.858948,364.251399 147.969713,401.122011 C147.969713,439.22238 164.815364,463.988874 161.586102,572.20297 C160.587044,597.157897 149.550911,687.275368 135.818962,704.743497 C130.861669,711.52551 123.61339,714.429469 114.074125,713.455373 C114.194021,704.669169 114.887813,700.169107 116.155498,699.955186 C126.883058,698.144925 127.407769,694.056012 127.407769,694.056012 C136.945008,683.061604 139.101706,656.556812 131.837203,644.366535 C137.689416,611.333301 140.908493,587.539162 141.494434,572.984118 C143.792172,515.907202 137.215734,489.072458 134.222249,472.037294 C127.23294,432.262911 124.374144,405.101627 128.027135,387.175677 C131.466094,370.300024 144.90079,333.106278 158.217885,313.563913 C158.217885,313.563913 160.840252,312.762175 173.344945,323.13764 C181.674631,330.048995 172.545135,339.227984 169.853238,342.242323 Z" id="Combined-Shape" fill="#687079"></path>
            <g id="Group-5" transform="translate(62.971710, 160.906199) rotate(16.000000) translate(-62.971710, -160.906199) translate(25.971710, 64.906199)" fill="#16191F">
                <circle id="Oval-6" cx="11" cy="34" r="2"></circle>
                <circle id="Oval-6" cx="26" cy="2" r="2"></circle>
                <circle id="Oval-6" cx="72" cy="190" r="2"></circle>
                <circle id="Oval-6" cx="50" cy="179" r="2"></circle>
                <circle id="Oval-6" cx="68" cy="144" r="2"></circle>
                <circle id="Oval-6" cx="43" cy="146" r="2"></circle>
                <circle id="Oval-6" cx="35" cy="101" r="2"></circle>
                <circle id="Oval-6" cx="37" cy="34" r="2"></circle>
                <circle id="Oval-6" cx="2" cy="6" r="2"></circle>
                <circle id="Oval-6" cx="28" cy="122" r="2"></circle>
                <circle id="Oval-6" cx="35" cy="71" r="2"></circle>
                <circle id="Oval-6" cx="15" cy="78" r="2"></circle>
            </g>
        </g>
        <g id="Group-3" transform="translate(34.000000, 111.000000)" fill-rule="nonzero">
            <g id="Combined-Shape" transform="translate(135.034721, 238.368269) rotate(-19.000000) translate(-135.034721, -238.368269) ">
                <use fill="black" fill-opacity="1" filter="url(#filter-3)" xlink:href="#path-2"></use>
                <use fill="#FFFFFF" xlink:href="#path-2"></use>
            </g>
            <g id="Combined-Shape" transform="translate(268.356515, 41.943382) rotate(-5.000000) translate(-268.356515, -41.943382) ">
                <use fill="black" fill-opacity="1" filter="url(#filter-5)" xlink:href="#path-4"></use>
                <use fill="#FFFFFF" xlink:href="#path-4"></use>
            </g>
            <g id="Rectangle-6">
                <use fill="black" fill-opacity="1" filter="url(#filter-7)" xlink:href="#path-6"></use>
                <use fill="#FFFFFF" xlink:href="#path-6"></use>
            </g>
            <g id="Rectangle-6">
                <use fill="black" fill-opacity="1" filter="url(#filter-9)" xlink:href="#path-8"></use>
                <use fill="#FFFFFF" xlink:href="#path-8"></use>
            </g>
            <g id="Rectangle-6">
                <use fill="black" fill-opacity="1" filter="url(#filter-11)" xlink:href="#path-10"></use>
                <use fill="#FFFFFF" xlink:href="#path-10"></use>
            </g>
            <g id="Rectangle-6">
                <use fill="black" fill-opacity="1" filter="url(#filter-13)" xlink:href="#path-12"></use>
                <use fill="#FFFFFF" xlink:href="#path-12"></use>
            </g>
            <g id="Rectangle-6">
                <use fill="black" fill-opacity="1" filter="url(#filter-15)" xlink:href="#path-14"></use>
                <use fill="#FFFFFF" xlink:href="#path-14"></use>
            </g>
        </g>
    </g>
</svg>
